# xmcd
#
# Track frame offsets: 
#        150
#        23917
#        40995
#        64107
#        78180
#        98770
#        118330
#        137130
#        154377
#        168555
#        184967
#        202055
#        213197
#        232402
#        252987
#        264790
#        278715
#        294410
#        313375
#        340597
#
# Disc length: 4715 seconds
#
# Revision: 2
# Processed by: cddbd v1.5.1PL2 Copyright (c) Steve Scherf et al.
# Submitted via: ExactAudioCopy v0.90b4
#
DISCID=32126914
DTITLE=Paul Personne - Anthologie 1983-1997 CD1÷3
DYEAR=1999
DGENRE=Blues
TTITLE0=Comme un étranger
TTITLE1=J'veux pas descendre
TTITLE2=T'retourne pas
TTITLE3=Ça va rouler
TTITLE4=Solitude blues
TTITLE5=Barjo Land
TTITLE6=La p'tite à côté d'moi
TTITLE7=J'prends l'bon côté
TTITLE8=M'laisse pas tout seul (avec moi)
TTITLE9=Pas d'place ici
TTITLE10=J'veux pas attendre
TTITLE11=Sale gosse
TTITLE12=Frankie et Johnny
TTITLE13=Fais-moi rester avec toi
TTITLE14=Barre-toi et r'viens vite me dire
TTITLE15=Trop seule
TTITLE16=Bottleneck
TTITLE17=La chance
TTITLE18=Jacky
TTITLE19=Un mec comme moi
EXTD=YEAR: 1999
EXTT0=
EXTT1=
EXTT2=
EXTT3=
EXTT4=
EXTT5=
EXTT6=
EXTT7=
EXTT8=
EXTT9=
EXTT10=
EXTT11=
EXTT12=
EXTT13=
EXTT14=
EXTT15=
EXTT16=
EXTT17=
EXTT18=
EXTT19=
PLAYORDER=
